
        <svg xmlns="http://www.w3.org/2000/svg" xmlns:xlink="http://www.w3.org/1999/xlink" version="1.1" width="3268.2763246143527" 
        height="3268.2763246143527" viewBox="0 0 3268.2763246143527 3268.2763246143527">
			<rect fill="#ffffff" width="3268.2763246143527" height="3268.2763246143527"/>
			<g transform="scale(13.41381623071764) translate(10, 10)">
				<defs id="SvgjsDefs1850"><linearGradient id="SvgjsLinearGradient1857"><stop id="SvgjsStop1858" stop-color="#2d388a" offset="0"></stop><stop id="SvgjsStop1859" stop-color="#00aeef" offset="1"></stop></linearGradient><linearGradient id="SvgjsLinearGradient1860"><stop id="SvgjsStop1861" stop-color="#2d388a" offset="0"></stop><stop id="SvgjsStop1862" stop-color="#00aeef" offset="1"></stop></linearGradient><linearGradient id="SvgjsLinearGradient1863"><stop id="SvgjsStop1864" stop-color="#2d388a" offset="0"></stop><stop id="SvgjsStop1865" stop-color="#00aeef" offset="1"></stop></linearGradient></defs><g id="SvgjsG1851" featureKey="rootContainer" transform="matrix(2.1484150170818554,0,0,2.1484150170818554,0,0)" fill="url(#SvgjsLinearGradient1857)"><path xmlns="http://www.w3.org/2000/svg" d="M0 0v104.1h104.1V0zm101.7 101.7H2.4V2.4h99.3z"></path></g><g id="SvgjsG1852" featureKey="monogramFeature-0" transform="matrix(2.25,0,0,2.25,57.05802917480469,-7.780745983123779)" fill="url(#SvgjsLinearGradient1860)"><path d="M6.5332 40.897999999999996 c1.9043 -8.1738 3.8086 -16.377 5.7129 -24.551 l17.578 0 c10.518 0 17.871 5.4492 13.037 17.373 c-1.2305 2.959 -2.8711 5.332 -4.7461 7.1777 l2.666 0 c-4.5996 4.4238 -10.957 5.918 -18.281 5.918 l-3.0469 13.154 l-14.59 0 l4.3945 -19.072 l-2.7246 0 z M24.316 27.217 c-0.61523 2.8711 -1.3184 5.8008 -1.9629 8.7891 c7.2949 -0.38086 10.02 -8.7891 1.9629 -8.7891 z"></path></g><g id="SvgjsG1853" featureKey="nameFeature-0" transform="matrix(1.750700312849259,0,0,1.750700312849259,12,132.16246089384262)" fill="url(#SvgjsLinearGradient1863)"><path d="M3.8 34 l0 5.96 l-3.8 0 l0 -28.52 l5.92 0 c2.64 0 4.76 2.16 4.76 4.8 l0 13 c0 2.64 -2.12 4.76 -4.76 4.76 l-2.12 0 z M3.8 15.239999999999998 l0 14.96 l2.12 0 c0.56 0 0.96 -0.4 0.96 -0.96 l0 -13 c0 -0.56 -0.4 -1 -0.96 -1 l-2.12 0 z M23.64 40.08 l-4.08 0 l-2.2 -6.04 l-0.88 0 l0 6.04 l-3.8 0 l0 -28.64 l5.96 0 c2.64 0 4.76 2.12 4.76 4.76 l0 13.08 c0 1.72 -0.88 3.2 -2.24 4.04 z M16.48 15.239999999999998 l0 15 l2.16 0 c0.52 0 0.96 -0.44 0.96 -0.96 l0 -13.08 c0 -0.52 -0.44 -0.96 -0.96 -0.96 l-2.16 0 z M31.04 40.04 c-3 0 -5.4 -2.44 -5.4 -5.4 l0 -17.96 c0 -2.96 2.4 -5.36 5.4 -5.36 c2.96 0 5.36 2.4 5.36 5.36 l0 17.96 c0 2.96 -2.4 5.4 -5.36 5.4 z M31.04 15.120000000000001 c-0.88 0 -1.56 0.72 -1.56 1.56 l0 17.96 c0 0.88 0.68 1.56 1.56 1.56 c0.84 0 1.56 -0.68 1.56 -1.56 l0 -17.96 c0 -0.84 -0.72 -1.56 -1.56 -1.56 z M44.08 40 c-3.12 0 -5.68 -2.52 -5.68 -5.68 l0 -2.92 l3.8 0 l0 2.92 c0 1.04 0.84 1.88 1.88 1.88 s1.84 -0.84 1.84 -1.88 l0 -23 l3.84 0 l0 23 c0 3.16 -2.56 5.68 -5.68 5.68 z M61.08 24.92 l-5.52 0 l0 11.28 l5.56 0 l0 3.8 l-9.36 0 l0 -28.56 l9.36 0 l0 3.8 l-5.56 0 l0 5.88 l5.52 0 l0 3.8 z M68.6 40.24 c-3.04 0 -5.48 -2.48 -5.48 -5.48 l0 -4.36 l3.88 0 l0 4.36 c0 0.88 0.72 1.6 1.6 1.6 s1.56 -0.72 1.56 -1.6 l0 -3.8 l-7.04 -9.72 l0 -4.96 c0 -3.04 2.44 -5.52 5.48 -5.52 c3 0 5.44 2.48 5.44 5.52 l0 4.32 l-3.88 0 l0 -4.32 c0 -0.92 -0.68 -1.6 -1.56 -1.6 s-1.6 0.68 -1.6 1.6 l0 3.64 l7.04 9.72 l0 5.12 c0 3 -2.44 5.48 -5.44 5.48 z M88.64 11.36 l0 3.84 l-4.76 0 l0 24.84 l-3.84 0 l0 -24.84 l-5.24 0 l0 -3.84 l13.84 0 z M93.96 11.36 l0 28.48 l-3.8 0 l0 -28.48 l3.8 0 z M107.55999999999999 11.36 l6.68 0 l0 28.56 l-3.76 0 l0 -22.6 l-3.56 22.68 l-1.48 0 l-0.36 -0.08 l-0.32 0.08 l-1.48 0 l-3.52 -22.68 l0 22.6 l-3.8 0 l0 -28.56 l6.72 0 l2.44 16.16 z"></path></g>
			</g>
		</svg>
	